{
	"asset":{
		"generator":"Khronos glTF Blender I/O v3.6.27",
		"version":"2.0"
	},
	"scene":0,
	"scenes":[
		{
			"name":"Scene",
			"nodes":[
				0
			]
		}
	],
	"nodes":[
		{
			"mesh":0,
			"name":"genplayer",
			"rotation":[
				0.7071068286895752,
				0,
				0,
				0.7071068286895752
			]
		}
	],
	"materials":[
		{
			"doubleSided":true,
			"name":"Material.001",
			"pbrMetallicRoughness":{
				"baseColorTexture":{
					"index":0
				},
				"metallicFactor":0,
				"roughnessFactor":0.5
			}
		}
	],
	"meshes":[
		{
			"name":"genplayer",
			"primitives":[
				{
					"attributes":{
						"POSITION":0,
						"NORMAL":1,
						"TEXCOORD_0":2
					},
					"indices":3,
					"material":0
				}
			]
		}
	],
	"textures":[
		{
			"sampler":0,
			"source":0
		}
	],
	"images":[
		{
			"mimeType":"image/png",
			"name":"genplayer_packed0_diffuse",
			"uri":"genplayer_packed0_diffuse.png"
		}
	],
	"accessors":[
		{
			"bufferView":0,
			"componentType":5126,
			"count":38498,
			"max":[
				4.974621295928955,
				0.7828407287597656,
				-0.03711509704589844
			],
			"min":[
				-5.279507160186768,
				-1.0309386253356934,
				-9.43385124206543
			],
			"type":"VEC3"
		},
		{
			"bufferView":1,
			"componentType":5126,
			"count":38498,
			"type":"VEC3"
		},
		{
			"bufferView":2,
			"componentType":5126,
			"count":38498,
			"type":"VEC2"
		},
		{
			"bufferView":3,
			"componentType":5123,
			"count":86103,
			"type":"SCALAR"
		}
	],
	"bufferViews":[
		{
			"buffer":0,
			"byteLength":461976,
			"byteOffset":0,
			"target":34962
		},
		{
			"buffer":0,
			"byteLength":461976,
			"byteOffset":461976,
			"target":34962
		},
		{
			"buffer":0,
			"byteLength":307984,
			"byteOffset":923952,
			"target":34962
		},
		{
			"buffer":0,
			"byteLength":172206,
			"byteOffset":1231936,
			"target":34963
		}
	],
	"samplers":[
		{
			"magFilter":9729,
			"minFilter":9987
		}
	],
	"buffers":[
		{
			"byteLength":1404144,
			"uri":"generations.bin"
		}
	]
}
